<mxfile host="Electron" modified="2024-05-02T07:30:24.385Z" agent="Mozilla/5.0 (Windows NT 10.0; Win64; x64) AppleWebKit/537.36 (KHTML, like Gecko) draw.io/24.2.5 Chrome/120.0.6099.109 Electron/28.1.0 Safari/537.36" etag="87UB2OjIBojX4F_WZgLx" version="24.2.5" type="device">
  <diagram name="Page-1" id="fT8moRuMVl1moiT2wxyi">
    <mxGraphModel dx="478" dy="335" grid="1" gridSize="10" guides="1" tooltips="1" connect="1" arrows="1" fold="1" page="1" pageScale="1" pageWidth="850" pageHeight="1100" math="1" shadow="0">
      <root>
        <mxCell id="0" />
        <mxCell id="1" parent="0" />
        <mxCell id="aSwfAs5o_u90ElRS-Rul-5" style="edgeStyle=orthogonalEdgeStyle;rounded=0;orthogonalLoop=1;jettySize=auto;html=1;exitX=0;exitY=0.5;exitDx=0;exitDy=0;exitPerimeter=0;endArrow=none;endFill=0;" parent="1" source="aSwfAs5o_u90ElRS-Rul-1" edge="1">
          <mxGeometry relative="1" as="geometry">
            <mxPoint x="280.0000000000001" y="199.9230769230769" as="targetPoint" />
          </mxGeometry>
        </mxCell>
        <mxCell id="aSwfAs5o_u90ElRS-Rul-6" style="edgeStyle=orthogonalEdgeStyle;rounded=0;orthogonalLoop=1;jettySize=auto;html=1;exitX=1;exitY=0.5;exitDx=0;exitDy=0;exitPerimeter=0;endArrow=none;endFill=0;" parent="1" source="aSwfAs5o_u90ElRS-Rul-1" edge="1">
          <mxGeometry relative="1" as="geometry">
            <mxPoint x="480" y="199.9230769230769" as="targetPoint" />
          </mxGeometry>
        </mxCell>
        <mxCell id="aSwfAs5o_u90ElRS-Rul-1" value="$$\underline{Z}_l$$" style="pointerEvents=1;verticalLabelPosition=bottom;shadow=0;dashed=0;align=center;html=1;verticalAlign=top;shape=mxgraph.electrical.resistors.resistor_1;spacing=-7;" parent="1" vertex="1">
          <mxGeometry x="330" y="190" width="100" height="20" as="geometry" />
        </mxCell>
        <mxCell id="aSwfAs5o_u90ElRS-Rul-7" style="edgeStyle=orthogonalEdgeStyle;rounded=0;orthogonalLoop=1;jettySize=auto;html=1;exitX=0;exitY=0.5;exitDx=0;exitDy=0;exitPerimeter=0;endArrow=none;endFill=0;" parent="1" source="aSwfAs5o_u90ElRS-Rul-2" edge="1">
          <mxGeometry relative="1" as="geometry">
            <mxPoint x="480" y="200" as="targetPoint" />
          </mxGeometry>
        </mxCell>
        <mxCell id="aSwfAs5o_u90ElRS-Rul-8" style="edgeStyle=orthogonalEdgeStyle;rounded=0;orthogonalLoop=1;jettySize=auto;html=1;exitX=1;exitY=0.5;exitDx=0;exitDy=0;exitPerimeter=0;endArrow=none;endFill=0;" parent="1" source="aSwfAs5o_u90ElRS-Rul-2" edge="1">
          <mxGeometry relative="1" as="geometry">
            <mxPoint x="480" y="320" as="targetPoint" />
          </mxGeometry>
        </mxCell>
        <mxCell id="aSwfAs5o_u90ElRS-Rul-2" value="$$\underline{Z}_u$$" style="pointerEvents=1;verticalLabelPosition=middle;shadow=0;dashed=0;align=right;html=1;verticalAlign=middle;shape=mxgraph.electrical.resistors.resistor_1;direction=south;labelPosition=left;" parent="1" vertex="1">
          <mxGeometry x="470" y="210" width="20" height="100" as="geometry" />
        </mxCell>
        <mxCell id="aSwfAs5o_u90ElRS-Rul-4" style="edgeStyle=orthogonalEdgeStyle;rounded=0;orthogonalLoop=1;jettySize=auto;html=1;exitX=0.5;exitY=0;exitDx=0;exitDy=0;exitPerimeter=0;endArrow=none;endFill=0;" parent="1" source="aSwfAs5o_u90ElRS-Rul-3" edge="1">
          <mxGeometry relative="1" as="geometry">
            <mxPoint x="279.9230769230769" y="200" as="targetPoint" />
          </mxGeometry>
        </mxCell>
        <mxCell id="aSwfAs5o_u90ElRS-Rul-9" style="edgeStyle=orthogonalEdgeStyle;rounded=0;orthogonalLoop=1;jettySize=auto;html=1;endArrow=none;endFill=0;" parent="1" source="aSwfAs5o_u90ElRS-Rul-3" edge="1">
          <mxGeometry relative="1" as="geometry">
            <mxPoint x="280" y="320" as="targetPoint" />
          </mxGeometry>
        </mxCell>
        <mxCell id="aSwfAs5o_u90ElRS-Rul-3" value="" style="pointerEvents=1;verticalLabelPosition=bottom;shadow=0;dashed=0;align=center;html=1;verticalAlign=top;shape=mxgraph.electrical.signal_sources.source;aspect=fixed;points=[[0.5,0,0],[1,0.5,0],[0.5,1,0],[0,0.5,0]];elSignalType=ac;" parent="1" vertex="1">
          <mxGeometry x="250" y="230" width="60" height="60" as="geometry" />
        </mxCell>
        <mxCell id="aSwfAs5o_u90ElRS-Rul-10" value="" style="endArrow=none;html=1;rounded=0;" parent="1" edge="1">
          <mxGeometry width="50" height="50" relative="1" as="geometry">
            <mxPoint x="280" y="320" as="sourcePoint" />
            <mxPoint x="480" y="320" as="targetPoint" />
          </mxGeometry>
        </mxCell>
        <mxCell id="T3-wN9MscYpdBS6z6j-c-2" value="" style="endArrow=classic;html=1;rounded=0;" edge="1" parent="1">
          <mxGeometry width="50" height="50" relative="1" as="geometry">
            <mxPoint x="240" y="300" as="sourcePoint" />
            <mxPoint x="240" y="220" as="targetPoint" />
          </mxGeometry>
        </mxCell>
        <mxCell id="T3-wN9MscYpdBS6z6j-c-3" value="$$\underline{V}$$" style="text;html=1;align=center;verticalAlign=middle;resizable=0;points=[];autosize=1;strokeColor=none;fillColor=none;" vertex="1" parent="1">
          <mxGeometry x="170" y="245" width="120" height="30" as="geometry" />
        </mxCell>
        <mxCell id="T3-wN9MscYpdBS6z6j-c-4" value="" style="endArrow=classic;html=1;rounded=0;" edge="1" parent="1">
          <mxGeometry width="50" height="50" relative="1" as="geometry">
            <mxPoint x="420" y="180" as="sourcePoint" />
            <mxPoint x="340" y="180" as="targetPoint" />
          </mxGeometry>
        </mxCell>
        <mxCell id="T3-wN9MscYpdBS6z6j-c-5" value="$$\underline{V}_l$$" style="text;html=1;align=center;verticalAlign=middle;resizable=0;points=[];autosize=1;strokeColor=none;fillColor=none;" vertex="1" parent="1">
          <mxGeometry x="315" y="150" width="130" height="30" as="geometry" />
        </mxCell>
        <mxCell id="T3-wN9MscYpdBS6z6j-c-6" value="" style="endArrow=classic;html=1;rounded=0;" edge="1" parent="1">
          <mxGeometry width="50" height="50" relative="1" as="geometry">
            <mxPoint x="500" y="300" as="sourcePoint" />
            <mxPoint x="500" y="220" as="targetPoint" />
          </mxGeometry>
        </mxCell>
        <mxCell id="T3-wN9MscYpdBS6z6j-c-7" value="$$\underline{V}&#39;$$" style="text;html=1;align=center;verticalAlign=middle;resizable=0;points=[];autosize=1;strokeColor=none;fillColor=none;" vertex="1" parent="1">
          <mxGeometry x="450" y="245" width="120" height="30" as="geometry" />
        </mxCell>
      </root>
    </mxGraphModel>
  </diagram>
</mxfile>
